HIERARCHY
ROOT Hips
{
  OFFSET 179.979 97.3047 303.174
  CHANNELS 6 Xposition Yposition Zposition Zrotation Xrotation Yrotation
  JOINT Spine
  {
    OFFSET 0.000859786 9.92346 -1.22733
    CHANNELS 3 Zrotation Xrotation Yrotation
    JOINT Spine1
    {
      OFFSET 0 11.732 0
      CHANNELS 3 Zrotation Xrotation Yrotation
      JOINT Spine2
      {
        OFFSET 0 13.4588 0
        CHANNELS 3 Zrotation Xrotation Yrotation
        JOINT Neck
        {
          OFFSET 2.54812e-05 15.0278 0.877907
          CHANNELS 3 Zrotation Xrotation Yrotation
          JOINT Head
          {
            OFFSET 0 10.3218 3.14243
            CHANNELS 3 Zrotation Xrotation Yrotation
            End Site
            {
              OFFSET 0 0 0
            }
          }
        }
        JOINT LeftShoulder
        {
          OFFSET 6.10582 9.10629 0.757062
          CHANNELS 3 Zrotation Xrotation Yrotation
          JOINT LeftArm
          {
            OFFSET 0 12.9223 0
            CHANNELS 3 Zrotation Xrotation Yrotation
            JOINT LeftForeArm
            {
              OFFSET 0 27.4047 0
              CHANNELS 3 Zrotation Xrotation Yrotation
              JOINT LeftHand
              {
                OFFSET -1.28204e-05 27.6145 0
                CHANNELS 3 Zrotation Xrotation Yrotation
                End Site
                {
                  OFFSET 0 0 0
                }
              }
            }
          }
        }
        JOINT RightShoulder
        {
          OFFSET -6.1057 9.10638 0.757076
          CHANNELS 3 Zrotation Xrotation Yrotation
          JOINT RightArm
          {
            OFFSET 0 12.9223 0
            CHANNELS 3 Zrotation Xrotation Yrotation
            JOINT RightForeArm
            {
              OFFSET 0 27.4047 0
              CHANNELS 3 Zrotation Xrotation Yrotation
              JOINT RightHand
              {
                OFFSET 1.28428e-05 27.6145 1.44975e-05
                CHANNELS 3 Zrotation Xrotation Yrotation
                End Site
                {
                  OFFSET 0 0 0
                }
              }
            }
          }
        }
      }
    }
  }
  JOINT LeftUpLeg
  {
    OFFSET 9.12387 -6.65719 -0.0554031
    CHANNELS 3 Zrotation Xrotation Yrotation
    JOINT LeftLeg
    {
      OFFSET 0 40.5994 0
      CHANNELS 3 Zrotation Xrotation Yrotation
      JOINT LeftFoot
      {
        OFFSET 0 42.099 0
        CHANNELS 3 Zrotation Xrotation Yrotation
        JOINT LeftToeBase
        {
          OFFSET 0 15.7216 0
          CHANNELS 3 Zrotation Xrotation Yrotation
          End Site
          {
            OFFSET 0 0 0
          }
        }
      }
    }
  }
  JOINT RightUpLeg
  {
    OFFSET -9.12503 -6.6556 -0.0553527
    CHANNELS 3 Zrotation Xrotation Yrotation
    JOINT RightLeg
    {
      OFFSET 0 40.5994 0
      CHANNELS 3 Zrotation Xrotation Yrotation
      JOINT RightFoot
      {
        OFFSET 0 42.099 0
        CHANNELS 3 Zrotation Xrotation Yrotation
        JOINT RightToeBase
        {
          OFFSET 0 15.7216 0
          CHANNELS 3 Zrotation Xrotation Yrotation
          End Site
          {
            OFFSET 0 0 0
          }
        }
      }
    }
  }
}
MOTION
Frames:	13
Frame Time:	0.0333333
-33.4544 99.049 -68.848 1.98232 -5.85092 2.79623 -0.27467 -4.53103 -0.0161479 -0.494631 4.84902 0.0370143 -0.499119 11.4435 0.0379441 -9.68356 2.42143 -5.68014 14.0606 -16.3602 -9.48347 -90.7927 -15.2794 90.2021 17.1402 16.3781 -9.35768 18.4239 -16.7222 -0.788579 -13.6858 -8.19899 22.6643 93.4206 -21.9327 -89.41 -17.9945 14.1619 16.3882 -15.8018 -14.9257 0.715376 13.2475 -9.77458 0.289061 -178.589 -5.85994 -1.0498 -2.27392 -8.77361 -8.61136 13.9498 65.6001 -14.603 -0.965272 26.367 -3.60229 174.062 -7.33969 5.34503 4.118 -10.2818 11.4909 -21.9755 69.9014 23.519 0.963539 26.3682 3.55537 
-33.4642 99.0491 -68.8485 1.98001 -5.85859 2.80595 -0.27467 -4.53103 -0.0161479 -0.494631 4.84902 0.0370143 -0.499119 11.4435 0.0379441 -9.68823 2.41733 -5.68009 14.0532 -16.3893 -9.47868 -90.7928 -15.2732 90.2021 17.1325 16.3571 -9.3675 18.4016 -16.7145 -0.788548 -13.6934 -8.17166 22.6213 93.4229 -21.9327 -89.4091 -17.9781 14.161 16.3651 -15.7621 -14.9172 0.715348 13.1931 -9.72838 0.152147 -178.577 -5.87525 -1.04825 -2.2732 -8.77372 -8.60516 13.9413 65.605 -14.5953 -0.965272 26.367 -3.60229 174.076 -7.35307 5.34387 4.11933 -10.2816 11.5002 -21.9996 69.8989 23.5408 0.963539 26.3682 3.55537 
-33.4917 99.0494 -68.8498 1.97306 -5.87366 2.84497 -0.27467 -4.53103 -0.0161479 -0.494631 4.84902 0.0370143 -0.499119 11.4435 0.0379441 -9.69761 2.40606 -5.68 14.0275 -16.4713 -9.46664 -90.793 -15.2451 90.2019 17.0969 16.2889 -9.40974 18.329 -16.6526 -0.788292 -13.6412 -8.12835 22.5563 93.4371 -21.9326 -89.4038 -17.9228 14.1552 16.2868 -15.6865 -14.8941 0.715271 13.0682 -9.61826 -0.224629 -178.544 -5.87848 -1.03901 -2.27277 -8.7859 -8.58036 13.9042 65.6168 -14.5617 -0.965272 26.367 -3.60229 174.115 -7.38068 5.33476 4.11991 -10.2838 11.5347 -22.0864 69.8951 23.6196 0.963539 26.3682 3.55537 
-33.522 99.0496 -68.8558 1.95781 -5.8784 2.87943 -0.27467 -4.53103 -0.0161479 -0.494631 4.84902 0.0370143 -0.499119 11.4435 0.0379441 -9.70709 2.39437 -5.67991 13.999 -16.5068 -9.46134 -90.7932 -15.2133 90.2016 17.0695 16.2137 -9.44836 18.2377 -16.556 -0.783653 -13.5617 -8.10189 22.5587 93.4509 -21.9346 -89.3985 -17.8785 14.1426 16.1701 -15.6241 -14.8617 0.715163 12.9575 -9.57161 -0.578668 -178.496 -5.87474 -1.0198 -2.28623 -8.7913 -8.56612 13.887 65.6249 -14.5397 -0.965272 26.367 -3.60229 174.163 -7.38015 5.30256 4.12049 -10.2897 11.5802 -22.1895 69.8882 23.7131 0.963539 26.3682 3.55537 
-33.551 99.0498 -68.8694 1.94635 -5.87851 2.91111 -0.27467 -4.53103 -0.0161479 -0.494631 4.84902 0.0370143 -0.499119 11.4435 0.0379441 -9.71527 2.38381 -5.68417 13.9634 -16.5166 -9.46073 -90.7953 -15.19 90.201 17.075 16.1248 -9.47343 18.1335 -16.4323 -0.777732 -13.5428 -8.11324 22.4854 93.4559 -21.943 -89.3964 -17.8701 14.1275 16.0068 -15.5278 -14.8119 0.712102 12.8355 -9.69143 -0.917951 -178.456 -5.85079 -1.00417 -2.29777 -8.79987 -8.55535 13.8796 65.626 -14.5192 -0.965272 26.367 -3.60229 174.203 -7.35781 5.27014 4.12133 -10.3081 11.6232 -22.2861 69.8839 23.8007 0.963539 26.3682 3.55537 
-33.5763 99.0499 -68.8838 1.94342 -5.87636 2.95969 -0.27467 -4.53103 -0.0161479 -0.494337 4.84902 0.0335203 -0.498812 11.4435 0.0343196 -9.71162 2.39877 -5.69001 13.9002 -16.5395 -9.46151 -90.7949 -15.1729 90.201 17.1322 16.0145 -9.46365 17.9886 -16.2854 -0.770702 -13.5589 -8.13972 22.3779 93.4532 -21.947 -89.3972 -17.8811 14.1025 15.8502 -15.4195 -14.7188 0.708037 12.6292 -9.97614 -1.41846 -178.429 -5.83247 -0.971673 -2.30422 -8.79845 -8.54628 13.8807 65.6199 -14.4981 -0.965272 26.367 -3.60229 174.231 -7.34231 5.26196 4.12198 -10.3251 11.6592 -22.3649 69.8812 23.8723 0.963539 26.3682 3.55537 
-33.5986 99.05 -68.899 1.94661 -5.87427 3.02012 -0.27444 -4.53103 -0.0215341 -0.496672 4.85484 0.0227916 -0.497871 11.4493 0.0231874 -9.69226 2.41073 -5.70059 13.8393 -16.5774 -9.45927 -90.7859 -15.1594 90.2033 17.2012 15.9102 -9.45331 17.8386 -16.1102 -0.762419 -13.5667 -8.10101 22.3167 93.4443 -21.9535 -89.3968 -17.916 14.0641 15.6947 -15.3134 -14.6505 0.703466 12.3252 -10.1145 -2.69488 -178.411 -5.82019 -0.929414 -2.30713 -8.78532 -8.53574 13.8763 65.6047 -14.4711 -0.965272 26.367 -3.60229 174.253 -7.33233 5.29098 4.1191 -10.3404 11.6767 -22.4041 69.8816 23.9079 0.963539 26.3682 3.55537 
-33.6195 99.0501 -68.9152 1.95323 -5.87458 3.08029 -0.274139 -4.53103 -0.0285713 -0.503603 4.86261 0.00985784 -0.503281 11.4571 0.010032 -9.6732 2.40048 -5.71251 13.7868 -16.6088 -9.45591 -90.7672 -15.1378 90.208 17.2885 15.7993 -9.32026 17.6053 -15.942 -0.75407 -13.6098 -7.92421 22.2239 93.4258 -21.9653 -89.3966 -17.9778 14.0053 15.3694 -15.1392 -14.5597 0.697925 11.632 -10.658 -5.46861 -178.396 -5.82597 -0.889667 -2.31006 -8.7486 -8.52208 13.8529 65.5798 -14.4334 -0.965272 26.367 -3.60229 174.274 -7.32875 5.34372 4.10791 -10.3507 11.681 -22.421 69.8814 23.92 0.963539 26.3682 3.55537 
-33.6393 99.0503 -68.9332 1.96196 -5.88018 3.13206 -0.274007 -4.53103 -0.031661 -0.511954 4.87141 -0.000270228 -0.510446 11.4659 -0.000276766 -9.64793 2.36537 -5.72431 13.7317 -16.6194 -9.45424 -90.7442 -15.0994 90.2138 17.3698 15.679 -9.08516 17.326 -15.7664 -0.745233 -13.5122 -7.94784 22.7416 93.4077 -21.9946 -89.3942 -18.0491 13.8542 14.5158 -14.8651 -14.4408 0.690229 10.3976 -11.4832 -9.20152 -178.383 -5.8312 -0.862953 -2.31249 -8.70593 -8.50312 13.805 65.543 -14.3796 -0.965272 26.367 -3.60229 174.293 -7.33262 5.43283 4.08497 -10.3518 11.6581 -22.3906 69.8809 23.8779 0.963539 26.3682 3.55537 
-33.6582 99.0543 -68.9519 1.97383 -5.88587 3.17506 -0.273918 -4.53103 -0.0337328 -0.521951 4.87956 -0.00285801 -0.519444 11.4741 -0.0063348 -9.63018 2.37465 -5.74416 13.6957 -16.6622 -9.46311 -90.7217 -15.0531 90.2193 17.4523 15.5254 -8.71768 16.9923 -15.5225 -0.733313 -13.0597 -8.47661 24.3021 93.3952 -22.035 -89.3899 -18.1216 13.6861 13.4878 -14.5695 -14.3529 0.683341 8.70087 -12.386 -13.8433 -178.374 -5.8809 -0.854559 -2.31574 -8.5977 -8.47379 13.729 65.4843 -14.2984 -0.965272 26.367 -3.60229 174.306 -7.34118 5.48639 4.07196 -10.3387 11.6519 -22.3894 69.8692 23.8582 0.963539 26.3682 3.55537 
-33.6756 99.0548 -68.9713 1.98182 -5.89011 3.20841 -0.273868 -4.53103 -0.0349237 -0.528371 4.88689 -0.00241902 -0.527071 11.4814 -0.00663284 -9.6314 2.39064 -5.75665 13.7056 -16.6935 -9.47504 -90.6931 -15.0081 90.2265 17.5395 15.3982 -8.21551 16.6609 -15.3632 -0.724876 -12.1802 -9.088 26.724 93.3873 -22.0703 -89.386 -18.1737 13.5723 12.6011 -14.3539 -14.3443 0.680271 7.30922 -13.0233 -17.8284 -178.368 -5.88687 -0.913233 -2.2995 -8.55858 -8.40929 13.596 65.4547 -14.1756 -0.965272 26.367 -3.60229 174.316 -7.34085 5.4698 4.07569 -10.3314 11.684 -22.4585 69.8522 23.9088 0.963539 26.3682 3.55537 
-33.6903 99.0554 -68.9918 1.98093 -5.8941 3.22898 -0.273846 -4.5272 -0.0353706 -0.531928 4.89505 -0.000111454 -0.53088 11.4895 -0.00470048 -9.63316 2.41353 -5.76199 13.7288 -16.7326 -9.48063 -90.6789 -14.9685 90.2298 17.6122 15.2825 -7.71267 16.3971 -15.2393 -0.718417 -11.5454 -9.60175 28.3252 93.3832 -22.0877 -89.3841 -18.2017 13.5083 11.9657 -14.2277 -14.3844 0.680179 6.61996 -12.8019 -19.6297 -178.356 -5.87716 -0.926674 -2.29285 -8.55324 -8.38143 13.5145 65.4405 -14.1211 -0.965272 26.367 -3.60229 174.328 -7.33478 5.45881 4.07996 -10.3329 11.7076 -22.5092 69.8415 23.9462 0.963539 26.3682 3.55537 
-33.7037 99.0559 -69.0106 1.97915 -5.89761 3.23738 -0.27385 -4.52178 -0.0352106 -0.535119 4.90321 0.00290715 -0.534231 11.4977 -0.00187387 -9.62685 2.43741 -5.76429 13.7431 -16.7782 -9.47973 -90.6721 -14.9378 90.2314 17.6813 15.2289 -7.48054 16.1991 -15.1425 -0.715472 -11.1254 -9.85346 28.8915 93.3839 -22.08 -89.3826 -18.2247 13.4699 11.6172 -14.1028 -14.3075 0.67578 6.51065 -12.8372 -19.4394 -178.343 -5.86554 -0.932599 -2.289 -8.55745 -8.36796 13.4544 65.4338 -14.0948 -0.965272 26.367 -3.60229 174.34 -7.32544 5.44879 4.0834 -10.3363 11.7209 -22.5364 69.8358 23.9675 0.963539 26.3682 3.55537 
